<mxfile host="app.diagrams.net" modified="2024-01-02T08:44:27.729Z" agent="Mozilla/5.0 (Windows NT 10.0; Win64; x64) AppleWebKit/537.36 (KHTML, like Gecko) Chrome/120.0.0.0 Safari/537.36" etag="b2_gt6kdrqXC5AtCzUKD" version="22.1.16" type="device">
  <diagram id="jbVRNizJcDCQ8yqokmnY" name="第 1 页">
    <mxGraphModel dx="1793" dy="923" grid="1" gridSize="10" guides="1" tooltips="1" connect="1" arrows="1" fold="1" page="1" pageScale="1" pageWidth="2336" pageHeight="1654" math="0" shadow="0">
      <root>
        <mxCell id="0" />
        <mxCell id="1" parent="0" />
        <mxCell id="_HgupfXg40LZJNDoUt4P-283" value="" style="rounded=0;whiteSpace=wrap;html=1;" vertex="1" parent="1">
          <mxGeometry x="400" y="160" width="700" height="820" as="geometry" />
        </mxCell>
        <mxCell id="_HgupfXg40LZJNDoUt4P-240" value="&lt;font style=&quot;font-size: 23px;&quot;&gt;到站時間&lt;/font&gt;" style="rounded=1;whiteSpace=wrap;html=1;" vertex="1" parent="1">
          <mxGeometry x="420" y="280" width="120" height="40" as="geometry" />
        </mxCell>
        <mxCell id="_HgupfXg40LZJNDoUt4P-242" value="&lt;font style=&quot;font-size: 23px;&quot;&gt;站名&lt;/font&gt;" style="rounded=1;whiteSpace=wrap;html=1;" vertex="1" parent="1">
          <mxGeometry x="520" y="210" width="120" height="40" as="geometry" />
        </mxCell>
        <mxCell id="_HgupfXg40LZJNDoUt4P-243" value="&lt;font style=&quot;font-size: 23px;&quot;&gt;車次&lt;/font&gt;" style="rounded=1;whiteSpace=wrap;html=1;" vertex="1" parent="1">
          <mxGeometry x="700" y="190" width="120" height="40" as="geometry" />
        </mxCell>
        <mxCell id="_HgupfXg40LZJNDoUt4P-244" value="&lt;font style=&quot;font-size: 23px;&quot;&gt;停車時間&lt;/font&gt;" style="rounded=1;whiteSpace=wrap;html=1;" vertex="1" parent="1">
          <mxGeometry x="880" y="210" width="120" height="40" as="geometry" />
        </mxCell>
        <mxCell id="_HgupfXg40LZJNDoUt4P-245" value="&lt;font style=&quot;font-size: 23px;&quot;&gt;發車時間&lt;/font&gt;" style="rounded=1;whiteSpace=wrap;html=1;" vertex="1" parent="1">
          <mxGeometry x="920" y="280" width="120" height="40" as="geometry" />
        </mxCell>
        <mxCell id="_HgupfXg40LZJNDoUt4P-246" value="&lt;font style=&quot;font-size: 23px;&quot;&gt;時刻表&lt;/font&gt;" style="rounded=1;whiteSpace=wrap;html=1;" vertex="1" parent="1">
          <mxGeometry x="690" y="340" width="130" height="60" as="geometry" />
        </mxCell>
        <mxCell id="_HgupfXg40LZJNDoUt4P-247" value="&lt;font style=&quot;font-size: 23px;&quot;&gt;擁有&lt;/font&gt;" style="rhombus;whiteSpace=wrap;html=1;" vertex="1" parent="1">
          <mxGeometry x="680" y="470" width="150" height="80" as="geometry" />
        </mxCell>
        <mxCell id="_HgupfXg40LZJNDoUt4P-248" value="&lt;font style=&quot;font-size: 23px;&quot;&gt;車型&lt;/font&gt;" style="rounded=1;whiteSpace=wrap;html=1;" vertex="1" parent="1">
          <mxGeometry x="490" y="550" width="120" height="40" as="geometry" />
        </mxCell>
        <mxCell id="_HgupfXg40LZJNDoUt4P-249" value="&lt;font style=&quot;font-size: 23px;&quot;&gt;座位數&lt;/font&gt;" style="rounded=1;whiteSpace=wrap;html=1;" vertex="1" parent="1">
          <mxGeometry x="490" y="630" width="120" height="40" as="geometry" />
        </mxCell>
        <mxCell id="_HgupfXg40LZJNDoUt4P-250" value="&lt;font style=&quot;font-size: 23px;&quot;&gt;檢票口&lt;/font&gt;" style="rounded=1;whiteSpace=wrap;html=1;" vertex="1" parent="1">
          <mxGeometry x="490" y="760" width="120" height="40" as="geometry" />
        </mxCell>
        <mxCell id="_HgupfXg40LZJNDoUt4P-251" value="&lt;font style=&quot;font-size: 23px;&quot;&gt;里程&lt;/font&gt;" style="rounded=1;whiteSpace=wrap;html=1;" vertex="1" parent="1">
          <mxGeometry x="490" y="890" width="120" height="40" as="geometry" />
        </mxCell>
        <mxCell id="_HgupfXg40LZJNDoUt4P-252" value="&lt;font style=&quot;font-size: 23px;&quot;&gt;車次&lt;/font&gt;" style="rounded=1;whiteSpace=wrap;html=1;" vertex="1" parent="1">
          <mxGeometry x="890" y="540" width="120" height="40" as="geometry" />
        </mxCell>
        <mxCell id="_HgupfXg40LZJNDoUt4P-253" value="&lt;font style=&quot;font-size: 23px;&quot;&gt;車廂數&lt;/font&gt;" style="rounded=1;whiteSpace=wrap;html=1;" vertex="1" parent="1">
          <mxGeometry x="890" y="630" width="120" height="40" as="geometry" />
        </mxCell>
        <mxCell id="_HgupfXg40LZJNDoUt4P-254" value="&lt;font style=&quot;font-size: 23px;&quot;&gt;車次&lt;/font&gt;" style="rounded=1;whiteSpace=wrap;html=1;" vertex="1" parent="1">
          <mxGeometry x="910" y="720" width="120" height="40" as="geometry" />
        </mxCell>
        <mxCell id="_HgupfXg40LZJNDoUt4P-255" value="&lt;font style=&quot;font-size: 23px;&quot;&gt;發車時間&lt;/font&gt;" style="rounded=1;whiteSpace=wrap;html=1;" vertex="1" parent="1">
          <mxGeometry x="910" y="787" width="120" height="40" as="geometry" />
        </mxCell>
        <mxCell id="_HgupfXg40LZJNDoUt4P-256" value="&lt;font style=&quot;font-size: 23px;&quot;&gt;站名&lt;/font&gt;" style="rounded=1;whiteSpace=wrap;html=1;" vertex="1" parent="1">
          <mxGeometry x="910" y="890" width="120" height="40" as="geometry" />
        </mxCell>
        <mxCell id="_HgupfXg40LZJNDoUt4P-257" value="&lt;font style=&quot;font-size: 23px;&quot;&gt;車輛&lt;/font&gt;" style="rounded=1;whiteSpace=wrap;html=1;" vertex="1" parent="1">
          <mxGeometry x="680" y="610" width="140" height="70" as="geometry" />
        </mxCell>
        <mxCell id="_HgupfXg40LZJNDoUt4P-258" value="&lt;font style=&quot;font-size: 23px;&quot;&gt;終點站&lt;/font&gt;" style="rounded=1;whiteSpace=wrap;html=1;direction=south;" vertex="1" parent="1">
          <mxGeometry x="680" y="880" width="140" height="70" as="geometry" />
        </mxCell>
        <mxCell id="_HgupfXg40LZJNDoUt4P-259" value="&lt;span style=&quot;font-size: 23px;&quot;&gt;開往&lt;/span&gt;" style="rhombus;whiteSpace=wrap;html=1;" vertex="1" parent="1">
          <mxGeometry x="680" y="747" width="150" height="80" as="geometry" />
        </mxCell>
        <mxCell id="_HgupfXg40LZJNDoUt4P-260" value="&lt;font style=&quot;font-size: 23px;&quot;&gt;1&lt;/font&gt;" style="text;html=1;strokeColor=none;fillColor=none;align=center;verticalAlign=middle;whiteSpace=wrap;rounded=0;" vertex="1" parent="1">
          <mxGeometry x="750" y="410" width="60" height="30" as="geometry" />
        </mxCell>
        <mxCell id="_HgupfXg40LZJNDoUt4P-261" value="&lt;font style=&quot;font-size: 23px;&quot;&gt;1&lt;/font&gt;" style="text;html=1;strokeColor=none;fillColor=none;align=center;verticalAlign=middle;whiteSpace=wrap;rounded=0;" vertex="1" parent="1">
          <mxGeometry x="750" y="580" width="60" height="30" as="geometry" />
        </mxCell>
        <mxCell id="_HgupfXg40LZJNDoUt4P-262" value="&lt;font style=&quot;font-size: 23px;&quot;&gt;1&lt;/font&gt;" style="text;html=1;strokeColor=none;fillColor=none;align=center;verticalAlign=middle;whiteSpace=wrap;rounded=0;" vertex="1" parent="1">
          <mxGeometry x="750" y="690" width="60" height="30" as="geometry" />
        </mxCell>
        <mxCell id="_HgupfXg40LZJNDoUt4P-263" value="&lt;font style=&quot;font-size: 23px;&quot;&gt;n&lt;/font&gt;" style="text;html=1;strokeColor=none;fillColor=none;align=center;verticalAlign=middle;whiteSpace=wrap;rounded=0;" vertex="1" parent="1">
          <mxGeometry x="750" y="840" width="60" height="30" as="geometry" />
        </mxCell>
        <mxCell id="_HgupfXg40LZJNDoUt4P-264" value="" style="endArrow=none;html=1;rounded=0;exitX=0;exitY=0.5;exitDx=0;exitDy=0;" edge="1" parent="1" source="_HgupfXg40LZJNDoUt4P-246" target="_HgupfXg40LZJNDoUt4P-240">
          <mxGeometry width="50" height="50" relative="1" as="geometry">
            <mxPoint x="530" y="470" as="sourcePoint" />
            <mxPoint x="580" y="420" as="targetPoint" />
          </mxGeometry>
        </mxCell>
        <mxCell id="_HgupfXg40LZJNDoUt4P-265" value="" style="endArrow=none;html=1;rounded=0;" edge="1" parent="1" source="_HgupfXg40LZJNDoUt4P-246" target="_HgupfXg40LZJNDoUt4P-242">
          <mxGeometry width="50" height="50" relative="1" as="geometry">
            <mxPoint x="540" y="450" as="sourcePoint" />
            <mxPoint x="590" y="400" as="targetPoint" />
          </mxGeometry>
        </mxCell>
        <mxCell id="_HgupfXg40LZJNDoUt4P-266" value="" style="endArrow=none;html=1;rounded=0;" edge="1" parent="1" source="_HgupfXg40LZJNDoUt4P-246" target="_HgupfXg40LZJNDoUt4P-243">
          <mxGeometry width="50" height="50" relative="1" as="geometry">
            <mxPoint x="530" y="460" as="sourcePoint" />
            <mxPoint x="580" y="410" as="targetPoint" />
          </mxGeometry>
        </mxCell>
        <mxCell id="_HgupfXg40LZJNDoUt4P-267" value="" style="endArrow=none;html=1;rounded=0;" edge="1" parent="1" source="_HgupfXg40LZJNDoUt4P-246" target="_HgupfXg40LZJNDoUt4P-244">
          <mxGeometry width="50" height="50" relative="1" as="geometry">
            <mxPoint x="530" y="470" as="sourcePoint" />
            <mxPoint x="580" y="420" as="targetPoint" />
          </mxGeometry>
        </mxCell>
        <mxCell id="_HgupfXg40LZJNDoUt4P-268" value="" style="endArrow=none;html=1;rounded=0;" edge="1" parent="1" source="_HgupfXg40LZJNDoUt4P-246" target="_HgupfXg40LZJNDoUt4P-245">
          <mxGeometry width="50" height="50" relative="1" as="geometry">
            <mxPoint x="490" y="460" as="sourcePoint" />
            <mxPoint x="540" y="410" as="targetPoint" />
          </mxGeometry>
        </mxCell>
        <mxCell id="_HgupfXg40LZJNDoUt4P-269" value="" style="endArrow=none;html=1;rounded=0;" edge="1" parent="1" source="_HgupfXg40LZJNDoUt4P-247" target="_HgupfXg40LZJNDoUt4P-246">
          <mxGeometry width="50" height="50" relative="1" as="geometry">
            <mxPoint x="520" y="480" as="sourcePoint" />
            <mxPoint x="570" y="430" as="targetPoint" />
          </mxGeometry>
        </mxCell>
        <mxCell id="_HgupfXg40LZJNDoUt4P-270" value="" style="endArrow=none;html=1;rounded=0;" edge="1" parent="1" source="_HgupfXg40LZJNDoUt4P-257" target="_HgupfXg40LZJNDoUt4P-247">
          <mxGeometry width="50" height="50" relative="1" as="geometry">
            <mxPoint x="530" y="470" as="sourcePoint" />
            <mxPoint x="580" y="420" as="targetPoint" />
          </mxGeometry>
        </mxCell>
        <mxCell id="_HgupfXg40LZJNDoUt4P-271" value="" style="endArrow=none;html=1;rounded=0;" edge="1" parent="1" source="_HgupfXg40LZJNDoUt4P-248" target="_HgupfXg40LZJNDoUt4P-257">
          <mxGeometry width="50" height="50" relative="1" as="geometry">
            <mxPoint x="490" y="510" as="sourcePoint" />
            <mxPoint x="540" y="460" as="targetPoint" />
          </mxGeometry>
        </mxCell>
        <mxCell id="_HgupfXg40LZJNDoUt4P-272" value="" style="endArrow=none;html=1;rounded=0;" edge="1" parent="1" source="_HgupfXg40LZJNDoUt4P-249" target="_HgupfXg40LZJNDoUt4P-257">
          <mxGeometry width="50" height="50" relative="1" as="geometry">
            <mxPoint x="540" y="490" as="sourcePoint" />
            <mxPoint x="590" y="440" as="targetPoint" />
          </mxGeometry>
        </mxCell>
        <mxCell id="_HgupfXg40LZJNDoUt4P-273" value="" style="endArrow=none;html=1;rounded=0;" edge="1" parent="1" source="_HgupfXg40LZJNDoUt4P-257" target="_HgupfXg40LZJNDoUt4P-252">
          <mxGeometry width="50" height="50" relative="1" as="geometry">
            <mxPoint x="960" y="490" as="sourcePoint" />
            <mxPoint x="1010" y="440" as="targetPoint" />
          </mxGeometry>
        </mxCell>
        <mxCell id="_HgupfXg40LZJNDoUt4P-274" value="" style="endArrow=none;html=1;rounded=0;" edge="1" parent="1" source="_HgupfXg40LZJNDoUt4P-257" target="_HgupfXg40LZJNDoUt4P-253">
          <mxGeometry width="50" height="50" relative="1" as="geometry">
            <mxPoint x="910" y="480" as="sourcePoint" />
            <mxPoint x="960" y="430" as="targetPoint" />
          </mxGeometry>
        </mxCell>
        <mxCell id="_HgupfXg40LZJNDoUt4P-275" value="" style="endArrow=none;html=1;rounded=0;" edge="1" parent="1" source="_HgupfXg40LZJNDoUt4P-257" target="_HgupfXg40LZJNDoUt4P-259">
          <mxGeometry width="50" height="50" relative="1" as="geometry">
            <mxPoint x="420" y="740" as="sourcePoint" />
            <mxPoint x="470" y="690" as="targetPoint" />
          </mxGeometry>
        </mxCell>
        <mxCell id="_HgupfXg40LZJNDoUt4P-277" value="" style="endArrow=none;html=1;rounded=0;exitX=0;exitY=1;exitDx=0;exitDy=0;" edge="1" parent="1" source="_HgupfXg40LZJNDoUt4P-259" target="_HgupfXg40LZJNDoUt4P-250">
          <mxGeometry width="50" height="50" relative="1" as="geometry">
            <mxPoint x="890" y="670" as="sourcePoint" />
            <mxPoint x="940" y="620" as="targetPoint" />
          </mxGeometry>
        </mxCell>
        <mxCell id="_HgupfXg40LZJNDoUt4P-278" value="" style="endArrow=none;html=1;rounded=0;" edge="1" parent="1" source="_HgupfXg40LZJNDoUt4P-259" target="_HgupfXg40LZJNDoUt4P-254">
          <mxGeometry width="50" height="50" relative="1" as="geometry">
            <mxPoint x="1220" y="760" as="sourcePoint" />
            <mxPoint x="1270" y="710" as="targetPoint" />
          </mxGeometry>
        </mxCell>
        <mxCell id="_HgupfXg40LZJNDoUt4P-279" value="" style="endArrow=none;html=1;rounded=0;" edge="1" parent="1" source="_HgupfXg40LZJNDoUt4P-259" target="_HgupfXg40LZJNDoUt4P-255">
          <mxGeometry width="50" height="50" relative="1" as="geometry">
            <mxPoint x="1180" y="760" as="sourcePoint" />
            <mxPoint x="1230" y="710" as="targetPoint" />
          </mxGeometry>
        </mxCell>
        <mxCell id="_HgupfXg40LZJNDoUt4P-280" value="" style="endArrow=none;html=1;rounded=0;" edge="1" parent="1" source="_HgupfXg40LZJNDoUt4P-258" target="_HgupfXg40LZJNDoUt4P-259">
          <mxGeometry width="50" height="50" relative="1" as="geometry">
            <mxPoint x="890" y="670" as="sourcePoint" />
            <mxPoint x="940" y="620" as="targetPoint" />
          </mxGeometry>
        </mxCell>
        <mxCell id="_HgupfXg40LZJNDoUt4P-281" value="" style="endArrow=none;html=1;rounded=0;" edge="1" parent="1" source="_HgupfXg40LZJNDoUt4P-256" target="_HgupfXg40LZJNDoUt4P-258">
          <mxGeometry width="50" height="50" relative="1" as="geometry">
            <mxPoint x="1220" y="700" as="sourcePoint" />
            <mxPoint x="1270" y="650" as="targetPoint" />
          </mxGeometry>
        </mxCell>
        <mxCell id="_HgupfXg40LZJNDoUt4P-282" value="" style="endArrow=none;html=1;rounded=0;" edge="1" parent="1" source="_HgupfXg40LZJNDoUt4P-251" target="_HgupfXg40LZJNDoUt4P-258">
          <mxGeometry width="50" height="50" relative="1" as="geometry">
            <mxPoint x="400" y="870" as="sourcePoint" />
            <mxPoint x="450" y="820" as="targetPoint" />
          </mxGeometry>
        </mxCell>
      </root>
    </mxGraphModel>
  </diagram>
</mxfile>
